<svg xmlns="http://www.w3.org/2000/svg" viewBox="0 0 753 446">
  <path fill="currentColor" fill-rule="evenodd" d="m284 16-84 20q-10 4-9 7 4 4 15 4c6 0 16-2 47-9 21-6 42-11 47-11q13-3 10-7c-2-4-14-6-26-4m32 11q-1 3-5 4L209 56l-19-4q-6-3-7-8 1-7 10-10 5-2 2-3l-31 7c-46 13-46 13-49 16q-4 5-7 20l-2 9c-4 8-19 21-33 28-8 4-9 6-9 16l1 9h-3q-2 0-6-5-5-10-11-4-4 6 0 13 2 6-2 9-3 2-7-4-5-6-9 0-4 5 0 13 3 6 1 7h-5q-7-3-8 4-1 4 2 9 4 5 1 10l-4 3q-4 1-5 4-2 7 3 9c4 2 4 3 4 12q1 9-2 10-3 2-3 5 1 8 4 9l3 5 5 24q-6 7 3 11 3 2 7 9c3 7 3 7 2 11q-3 3 1 6 2 3 6 4 4 0 7 3 3 5 1 11-2 4 4 7 3 3 5 0 3-3 5-1 5 3 6 9 0 7 5 9 4 3 6 0 8-5 10 3 3 7 10 7 5 0 7-8 0-4 4-4 4-1 4 3 5 14 12 11c4 0 26-8 30-11q5-3 2-4v-1l7-2q6 0 10-2c6-3 6-4 3-12l-3-9 1 2c5 13 11 18 26 23q18 6 28 0c6-3 9-6 25-21 53-51 56-54 66-58 7-2 13-2 28 2a803 803 0 0 0 108 22q1 4-8 4a435 435 0 0 1-95-17c-29-7-33-6-53 14q-43 41-43 43c1 1 20 11 29 13l77 27 1-2q2-2-13-19l-43-52 1-4q2-2 6 1l16 15 17 14a475 475 0 0 0 144 27c15 1 19 1 20 3q4 6 10 8c10 2 21 1 50-7a680 680 0 0 0 143-57c2 0 6 17 6 23q1 9-10 18a452 452 0 0 1-213 59 584 584 0 0 1-228-52q-9-5-14-12l-3-2c-1 0-11 8-12 11q-2 0 12 17l16 17q7 4 42 16c19 7 25 7 33 5l36 6 7 9q10 16 27 19 28 8 49-9l5-4 31-1c34 0 42 0 68-6a625 625 0 0 0 156-61q7-5 11-14 3-9 0-22l-8-29c-4-12-4-13-10-20l-7-8q0-6 4-11l5-4q15-11-4-21-6-1-5-6 1-8-6-15A766 766 0 0 0 515 84l-10-4-2-6q-2-6-9-9-7-5-25-10a623 623 0 0 0-153-28m-4 13c-33 7-72 17-73 18q-5 1 16 6 85 24 111 22a530 530 0 0 0 92-23c-1-2-33-11-59-17q-37-7-59-9c-14 0-17 0-28 3M158 60l-31 8a611 611 0 0 0 84 75c16 13 18 19 21 44l1 24c0 13 0 13 14 18l35 14 23 9 7-3q15-5 26-6l41 7q79 17 118 20a265 265 0 0 0 91-13c2 0-2-6-5-9q-8-5-8-10-2-7 5-12a245 245 0 0 1 44-8c9 1 21 7 26 12l5 4 30-11c14-6 15-9 6-18-27-25-81-62-119-82l-13-7-5 3c-7 5-8 5-33 14q-73 24-96 29-21 4-49-5a1521 1521 0 0 1-126-50c-47-20-80-35-84-38q-6-5-3-7t-1-3zm56 5c0 2 38 16 72 26 37 12 58 16 80 16 15 0 18 0 46-8l76-23-9-4-8-4-4 2c-6 4-9 6-36 12q-46 12-61 14-28 5-93-15zm291 30a840 840 0 0 1-140 44q-5 0 6 4 20 6 35 8c10 0 16-1 39-8l57-17c37-11 42-13 39-16-1-2-32-17-33-17zm-183 17v11c2 1 11 4 13 3l2-4 1-5q0-4-8-6c-8-1-8-1-8 1m-230 3q-5 2-7 5-4 3-3 9 0 11 4 9 3 0 4-6 5-13 15-11l4-1q-1-4-7-5zm21 7 3 2q8 1 8 5l-3 5q-4 3-8 3t-6 3q-5 7 1 9 4 3 4 1c6-11 20-16 27-10q4 6 1 7c-3 1 5 8 12 9q7 2 4 9-1 6 4 8 10 3 10 7l3 6q5 7 3 10c-1 3-13 8-20 9q-11 1-8 6l1 3q2 3 18-1c13-4 14-4 14-1 2 8 2 9 0 11-1 1-16 7-23 8q-5 2-1 5h22q5-4 3 8c-2 9-4 10-14 12q-12 2-8 6 1 3 14 3h7v-4c5-35 5-64 1-78-6-24-27-47-50-58-7-3-18-4-19-3m420 10c-8 2-11 4-19 15l-7 7q-13 10-6 19c3 4 24 18 38 26 15 7 19 8 36 2 14-4 17-6 18-10q1-5-6-12l-10-8-7-6v-6c0-9-3-13-13-20q-15-11-24-7m-1 5q-3 2-3 7c1 2 10 6 15 6q7-1 8-5 0-3-8-7-7-3-12-1M60 150q-15 5-25 21-12 19-11 51 2 23 9 44 10 30 28 47 26 27 52 19 28-10 33-57c1-10 0-26-2-38-5-25-21-55-38-71q-24-24-46-16m495 5q-3 6 2 4 6 0 4-5-1-6-6 1m-358 5q0 4 8 6 6 2 7-1l-9-5q-6-3-6 0m-135 0q-28 10-30 53 0 23 5 42c9 30 25 54 44 63q15 8 25 5 21-3 29-33c2-7 2-10 2-26 0-17 0-19-2-29-10-36-31-66-53-74q-11-3-20-1m63 1q-7 3-1 8l3 3 3-3q6-5 1-9-1-2-6 1m383 4q-2 3 1 7l32 21c12 7 17 8 33 3 13-5 14-6 11-10-1-3-12-12-13-12l-4 3q-5 7-16 6c-8-1-25-7-35-14-8-5-8-5-9-4m-446 3q-5 2 2 5t7 19-2 19c-1 1-10-3-19-9q-7-4-7 0v5l10 5c12 7 15 8 19 7q4-1 4-4l1-22c0-18 0-21-2-23q-5-5-13-2m21 26c1 23 1 24 8 31 7 6 11 7 23 5 12-1 12-1 7-11q-4-9-2-1l1 5c-2 3-19 0-25-4q-6-4-8-20l-2-18-1-8zm115-20q0 5 8 7 7 3 9 1 2-4-8-7-9-3-9-1m-56 8q-5 1-6 5l2 3q3 4 8-1 4-2 2-5-1-4-6-2m58 6q-1 5 7 8c10 3 13-2 4-6q-10-4-11-2m1 16q-4 4 8 7h8q-1-5-9-7-9-3-7 0M40 214c-2 4 0 11 2 10h3c3 2 11 16 13 22q2 9-4 19l-3 7c0 3 2 10 4 9l4-6c8-19 8-25 2-37q-9-20-19-25-2-2-2 1m580 20q-10 3-15 11-4 8 0 22 6 15 11 14c4 0 19-5 22-7 2-2 6-16 8-28q0-8-6-11c-4-2-15-2-20-1m80 1-25 12c3 3 5 3 14 0q9-3 17-8 10-3 7-5-4-2-13 1m-587 3q-19 5-18 26c1 7 1 9 6 19 6 13 13 24 15 24q4-1 8-10 4-6 0-3-8 7-16-11-12-23-3-31 4-4 19-7 5-1 4-7-1-3-5-2zm108 18c-23 41-30 55-30 59 0 7 15 16 28 16q6 0 9-2l64-60q4-4-5-7l-56-21zm403-14q-14 2-14 13c0 5 6 16 9 18 8 4 18-8 19-23q1-6-2-7-3-3-12-1m-393 10-1 5q0 3 3 5l36 15h7q4-4 0-9c-2-2-39-17-42-17zm390 2q-2 3 1 8h4q5-3 4-7c-1-2-7-3-9-1m73 7-14 5c-12 4-14 5-20 10-8 6-9 7-28 14-18 7-23 8-31 6l-5-2-12 4c-33 11-50 14-82 15l-25 1h20c24 0 22-1 23 11l4 22q3 8 36-1c58-14 141-46 151-59q4-4-1-9l-7-10q-4-8-6-7zm-623 4c-2 2-8 18-10 24-1 1 3 10 3 9l4-8q6-15 11-16 4-1 15 17 11 23 14 21l3-1-15-30q-10-16-21-18zm109 4-1 4q0 12-15 12-7-1-7 3v4c1 2 9 5 13 5l3 1 1 7q0 11 4-18zm367 11c-13 3-30 5-43 5h-7l3 2q12 4 28 4l30-6c10-3 10-4 9-6-2-3-5-2-20 1m-400 34-1 3 5 6q9 7 12 3 4-5-2-9l-11-7zm-15 20-2 3c0 2 7 10 9 11q5 0 6-4l-10-13z"/>
</svg>
