<?xml version="1.0" encoding="UTF-8"?>
<svg width="64px" height="64px" viewBox="0 0 64 64" version="1.1" xmlns="http://www.w3.org/2000/svg" xmlns:xlink="http://www.w3.org/1999/xlink">
    <title>locked</title>
    <g id="locked" stroke="none" stroke-width="1" fill="none" fill-rule="evenodd">
        <path d="M32,10 C38.627417,10 44,15.372583 44,22 L44,28 L45,28 C47.209139,28 49,29.790861 49,32 L49,50 C49,52.209139 47.209139,54 45,54 L19,54 C16.790861,54 15,52.209139 15,50 L15,32 C15,29.790861 16.790861,28 19,28 L20,28 L20,22 C20,15.372583 25.372583,10 32,10 Z M32,34 C29.790861,34 28,35.790861 28,38 C28,39.5500633 28.8816874,40.8941974 30.17091,41.5582502 L29.2143428,46.8211146 C29.1155471,47.3644909 29.4759509,47.8850742 30.0193273,47.9838699 C30.0783512,47.9946015 30.1382211,48 30.1982127,48 L33.8017873,48 C34.354072,48 34.8017873,47.5522847 34.8017873,47 C34.8017873,46.9400084 34.7963888,46.8801385 34.7856572,46.8211146 L33.82909,41.5582502 C35.1183126,40.8941974 36,39.5500633 36,38 C36,35.790861 34.209139,34 32,34 Z M32,14 C27.581722,14 24,17.581722 24,22 L24,28 L40,28 L40,22 C40,17.581722 36.418278,14 32,14 Z" id="Shape" fill="#000000" fill-rule="nonzero"></path>
    </g>
</svg>