<?xml version="1.0" encoding="UTF-8"?>
<svg width="64px" height="64px" viewBox="0 0 64 64" version="1.1" xmlns="http://www.w3.org/2000/svg" xmlns:xlink="http://www.w3.org/1999/xlink">
    <title>docked</title>
    <g id="docked" stroke="none" stroke-width="1" fill="none" fill-rule="evenodd">
        <path d="M24.924,40 L27.593,44 L16,44 C13.790861,44 12,45.790861 12,48 C12,50.209139 13.790861,52 16,52 L48,52 C50.209139,52 52,50.209139 52,48 C52,45.790861 50.209139,44 48,44 L36.406,44 L39.075,40 L48,40 C52.418278,40 56,43.581722 56,48 C56,52.418278 52.418278,56 48,56 L16,56 C11.581722,56 8,52.418278 8,48 C8,43.581722 11.581722,40 16,40 L24.924,40 Z M31.9999004,8.00128529 C33.105381,8.00128529 34.0015502,8.89671579 34.0015502,10.0012853 L34.0008387,32.0019486 L39.8396779,32.0012853 C40.4803282,32.0012853 40.9996779,32.520635 40.9996779,33.1612853 C40.9996779,33.3904486 40.9318008,33.6144777 40.8046112,33.8051048 L33.0396992,45.4428726 C32.6565401,46.0171376 31.8803943,46.1720595 31.3061293,45.7889003 C31.1691152,45.6974823 31.0515196,45.5798866 30.9601015,45.4428726 L23.1951895,33.8051048 C22.8396178,33.2721868 22.9833853,32.5519237 23.5163033,32.1963519 L23.6344616,32.1272242 C23.7967474,32.0447266 23.9767921,32.0012853 24.1601228,32.0012853 L29.9978387,32.0019486 L29.9982505,10.0012853 C29.9982505,8.89671579 30.8944197,8.00128529 31.9999004,8.00128529 Z M16,8 L16,16 C16,18.209139 17.790861,20 20,20 L27.998,20 L27.997,24 L20,24 C15.581722,24 12,20.418278 12,16 L12,8 L16,8 Z M52,8 L52,16 C52,20.418278 48.418278,24 44,24 L36,24 L36,20 L44,20 C46.209139,20 48,18.209139 48,16 L48,8 L52,8 Z" id="Combined-Shape" fill="#000000" fill-rule="nonzero"></path>
    </g>
</svg>