<svg width="64px" height="64px" viewBox="0 0 64 64" version="1.1" xmlns="http://www.w3.org/2000/svg" xmlns:xlink="http://www.w3.org/1999/xlink" transform="rotate(90)">
    <title>measure_distance</title>
    <g id="measure_distance" stroke="none" stroke-width="1" fill="none" fill-rule="evenodd">
        <path d="M10,8 C11.1045695,8 12,8.8954305 12,10 L12,54 C12,55.1045695 11.1045695,56 10,56 C8.8954305,56 8,55.1045695 8,54 L8,10 C8,8.8954305 8.8954305,8 10,8 Z M43,8 C43.5522847,8 44,8.44771525 44,9 L44,17 C44,17.5522847 43.5522847,18 43,18 C42.4477153,18 42,17.5522847 42,17 L42,9 C42,8.44771525 42.4477153,8 43,8 Z M32,8 C32.5522847,8 33,8.44771525 33,9 L33,17 C33,17.5522847 32.5522847,18 32,18 C31.4477153,18 31,17.5522847 31,17 L31,9 C31,8.44771525 31.4477153,8 32,8 Z M21,8 C21.5522847,8 22,8.44771525 22,9 L22,17 C22,17.5522847 21.5522847,18 21,18 C20.4477153,18 20,17.5522847 20,17 L20,9 C20,8.44771525 20.4477153,8 21,8 Z M43,46 C43.5522847,46 44,46.4477153 44,47 L44,55 C44,55.5522847 43.5522847,56 43,56 C42.4477153,56 42,55.5522847 42,55 L42,47 C42,46.4477153 42.4477153,46 43,46 Z M32,46 C32.5522847,46 33,46.4477153 33,47 L33,55 C33,55.5522847 32.5522847,56 32,56 C31.4477153,56 31,55.5522847 31,55 L31,47 C31,46.4477153 31.4477153,46 32,46 Z M21,46 C21.5522847,46 22,46.4477153 22,47 L22,55 C22,55.5522847 21.5522847,56 21,56 C20.4477153,56 20,55.5522847 20,55 L20,47 C20,46.4477153 20.4477153,46 21,46 Z M54,8 C55.1045695,8 56,8.8954305 56,10 L56,54 C56,55.1045695 55.1045695,56 54,56 C52.8954305,56 52,55.1045695 52,54 L52,10 C52,8.8954305 52.8954305,8 54,8 Z M24,37.8537852 C24,38.4868222 23.5185177,39 22.9245792,39 C22.7255621,39 22.5304486,38.9411392 22.360954,38.8299686 L13.5516666,33.0520023 C13.0065883,32.6944882 12.836637,31.9337044 13.1720698,31.352744 C13.2671464,31.1880739 13.397167,31.0494942 13.5516666,30.9481587 L22.360954,25.1701924 C22.8667866,24.8384194 23.5291886,25.0065164 23.8404703,25.5456476 C23.9447746,25.7262998 24,25.9342575 24,26.1463758 L24,30 L40,30 L40,26.1463758 C40,25.9766812 40.0353442,25.8096493 40.1028858,25.6571304 L40.1595297,25.5456476 C40.4708114,25.0065164 41.1332134,24.8384194 41.639046,25.1701924 L50.4483334,30.9481587 C50.602833,31.0494942 50.7328536,31.1880739 50.8279302,31.352744 C51.163363,31.9337044 50.9934117,32.6944882 50.4483334,33.0520023 L41.639046,38.8299686 C41.4695514,38.9411392 41.2744379,39 41.0754208,39 C40.4814823,39 40,38.4868222 40,37.8537852 L40,34 L24,34 L24,37.8537852 Z" id="Shape" fill="#000000" fill-rule="nonzero"></path>
    </g>
</svg>