<?xml version="1.0" encoding="UTF-8"?>
<svg width="64px" height="64px" viewBox="0 0 64 64" version="1.1" xmlns="http://www.w3.org/2000/svg" xmlns:xlink="http://www.w3.org/1999/xlink">
    <title>operational_state</title>
    <g id="operational_state" stroke="none" stroke-width="1" fill="none" fill-rule="evenodd">
        <path d="M32,8 C45.254834,8 56,18.745166 56,32 C56,45.254834 45.254834,56 32,56 C18.745166,56 8,45.254834 8,32 C8,18.745166 18.745166,8 32,8 Z M32,12 C20.954305,12 12,20.954305 12,32 C12,43.045695 20.954305,52 32,52 C43.045695,52 52,43.045695 52,32 C52,20.954305 43.045695,12 32,12 Z M36.2180254,17.1184565 C36.6483416,17.3278768 36.9081384,17.7778582 36.8743437,18.2552331 C36.759357,19.8795002 37.9828706,21.289444 39.6071377,21.4044307 C40.1919755,21.4458331 40.7741401,21.3118547 41.2801184,21.0221933 L41.4661455,20.9063111 C42.0025383,20.5438365 42.7312143,20.6848251 43.0936889,21.221218 C43.337284,21.581692 43.359429,22.0438786 43.1601239,22.4228458 L43.0936889,22.5338545 C42.1819739,23.8830178 42.5365959,25.7158217 43.8857592,26.6275367 C44.3715424,26.9558111 44.9427008,27.1308647 45.5257217,27.1329997 L45.7447669,27.1256563 C46.390534,27.0799406 46.9510917,27.5663783 46.9968074,28.2121454 C47.02753,28.6461226 46.8156148,29.0574605 46.4535279,29.2860032 L46.3404892,29.348922 C44.8763392,30.0614742 44.2670488,31.8260399 44.979601,33.2901899 C45.2361644,33.8173755 45.6432753,34.2545556 46.1471187,34.547915 L46.3404892,34.651078 C46.9225978,34.9343706 47.1648361,35.6359168 46.8815435,36.2180254 C46.6721232,36.6483416 46.2221418,36.9081384 45.7447669,36.8743437 C44.1204998,36.759357 42.710556,37.9828706 42.5955693,39.6071377 C42.5541669,40.1919755 42.6881453,40.7741401 42.9778067,41.2801184 L43.0936889,41.4661455 C43.4561635,42.0025383 43.3151749,42.7312143 42.778782,43.0936889 C42.3822606,43.3616435 41.8626669,43.3616435 41.4661455,43.0936889 C40.1169822,42.1819739 38.2841783,42.5365959 37.3724633,43.8857592 C37.0441889,44.3715424 36.8691353,44.9427008 36.8670003,45.5257217 L36.8743437,45.7447669 C36.9200594,46.390534 36.4336217,46.9510917 35.7878546,46.9968074 C35.3538774,47.02753 34.9425395,46.8156148 34.7139968,46.4535279 L34.651078,46.3404892 C33.9385258,44.8763392 32.1739601,44.2670488 30.7098101,44.979601 C30.1826245,45.2361644 29.7454444,45.6432753 29.452085,46.1471187 L29.348922,46.3404892 C29.0656294,46.9225978 28.3640832,47.1648361 27.7819746,46.8815435 C27.3516584,46.6721232 27.0918616,46.2221418 27.1256563,45.7447669 C27.240643,44.1204998 26.0171294,42.710556 24.3928623,42.5955693 C23.8080245,42.5541669 23.2258599,42.6881453 22.7198816,42.9778067 L22.5338545,43.0936889 C21.9974617,43.4561635 21.2687857,43.3151749 20.9063111,42.778782 C20.6383565,42.3822606 20.6383565,41.8626669 20.9063111,41.4661455 C21.8180261,40.1169822 21.4634041,38.2841783 20.1142408,37.3724633 C19.6284576,37.0441889 19.0572992,36.8691353 18.4742783,36.8670003 L18.2552331,36.8743437 C17.609466,36.9200594 17.0489083,36.4336217 17.0031926,35.7878546 C16.97247,35.3538774 17.1843852,34.9425395 17.5464721,34.7139968 L17.6595108,34.651078 C19.1236608,33.9385258 19.7329512,32.1739601 19.020399,30.7098101 C18.7638356,30.1826245 18.3567247,29.7454444 17.8528813,29.452085 L17.6595108,29.348922 C17.0774022,29.0656294 16.8351639,28.3640832 17.1184565,27.7819746 C17.3278768,27.3516584 17.7778582,27.0918616 18.2552331,27.1256563 C19.8795002,27.240643 21.289444,26.0171294 21.4044307,24.3928623 C21.4458331,23.8080245 21.3118547,23.2258599 21.0221933,22.7198816 L20.9063111,22.5338545 C20.5438365,21.9974617 20.6848251,21.2687857 21.221218,20.9063111 C21.581692,20.662716 22.0438786,20.640571 22.4228458,20.8398761 L22.5338545,20.9063111 C23.8830178,21.8180261 25.7158217,21.4634041 26.6275367,20.1142408 C26.9558111,19.6284576 27.1308647,19.0572992 27.1329997,18.4742783 L27.1256563,18.2552331 C27.0799406,17.609466 27.5663783,17.0489083 28.2121454,17.0031926 C28.6461226,16.97247 29.0574605,17.1843852 29.2860032,17.5464721 L29.348922,17.6595108 C30.0614742,19.1236608 31.8260399,19.7329512 33.2901899,19.020399 C33.8173755,18.7638356 34.2545556,18.3567247 34.547915,17.8528813 L34.651078,17.6595108 C34.9343706,17.0774022 35.6359168,16.8351639 36.2180254,17.1184565 Z M41.9505055,33.0011469 L36.8997409,33.0011469 C36.4360122,35.2828356 34.4185387,37 32,37 C31.4464547,37 30.9139188,36.9100477 30.4162125,36.7439632 L27.8917659,41.117964 C30.7235393,42.3910242 34.105809,42.331216 37,40.660254 C39.894191,38.9892921 41.6371213,36.0900647 41.9505055,33.0011469 Z M26.1577645,23.8831506 C22.033032,26.8444956 20.74726,32.5096826 23.339746,37 C24.0720991,38.2684728 25.0403914,39.3157983 26.1571852,40.1185476 L28.6836124,35.7419423 C27.6508658,34.8259693 27,33.4889936 27,32 C27,30.5110064 27.6508658,29.1740307 28.6836124,28.2580577 L26.1577645,23.8831506 Z M32,30 C30.8954305,30 30,30.8954305 30,32 C30,33.1045695 30.8954305,34 32,34 C33.1045695,34 34,33.1045695 34,32 C34,30.8954305 33.1045695,30 32,30 Z M27.8908054,22.8824644 L30.4162125,27.2560368 C30.9139188,27.0899523 31.4464547,27 32,27 C34.4185387,27 36.4360122,28.7171644 36.8997409,30.9988136 L41.9522759,30.9992477 C41.8154715,29.6307014 41.3926072,28.2684728 40.660254,27 C38.0675972,22.5093867 32.517955,20.7903738 27.8908054,22.8824644 Z" id="Shape" fill="#000000" fill-rule="nonzero"></path>
    </g>
</svg>