<?xml version="1.0" encoding="UTF-8"?>
<svg width="64px" height="64px" viewBox="0 0 64 64" version="1.1" xmlns="http://www.w3.org/2000/svg" xmlns:xlink="http://www.w3.org/1999/xlink">
    <title>mower_state</title>
    <g id="mower_state" stroke="none" stroke-width="1" fill="none" fill-rule="evenodd">
        <path d="M48.9705627,15.0294373 C49.7516113,15.8104858 49.7516113,17.0768158 48.9705627,17.8578644 L48.9038964,17.9187176 C52.0856929,21.7341562 54,26.6435229 54,32 L54.0011092,32.5357707 C55.1961002,33.2275472 56,34.5198932 56,36 L56,48 C56,49.4899034 55.1854232,50.7895523 53.9773295,51.4778866 C53.7375794,54.0144851 51.6006606,56 49,56 L15,56 C12.3993394,56 10.2624206,54.0144851 10.0224229,51.4766346 C8.81457679,50.7895523 8,49.4899034 8,48 L8,36 C8,34.519485 8.80434324,33.2268344 9.99987956,32.5351985 L10,32 C10,26.6435229 11.9143071,21.7341562 15.0961036,17.9187176 C15.0725265,17.9000063 15.0508004,17.8792275 15.0294373,17.8578644 C14.2483887,17.0768158 14.2483887,15.8104858 15.0294373,15.0294373 C24.4020203,5.65685425 39.5979797,5.65685425 48.9705627,15.0294373 Z M48,47 L16,47 L16,48 C16,49.4430531 15.2358468,50.7076287 14.0901153,51.4111518 C14.2450187,51.7584003 14.594295,52 15,52 L49,52 C49.405705,52 49.7549813,51.7584003 49.9118035,51.4112263 C48.7641532,50.7076287 48,49.4430531 48,48 L48,47 Z M41.0012194,16.408785 L41,32 C41,36.9705627 36.9705627,41 32,41 C27.0294373,41 23,36.9705627 23,32 L22.999779,16.4082074 C17.6196885,19.5205236 14,25.33755 14,32 L14.0011092,32.5357707 C15.1961002,33.2275472 16,34.5198932 16,36 L16,45 L48,45 L48,36 C48,34.519485 48.8043432,33.2268344 49.9998796,32.5351985 L50,32 C50,25.3379622 46.3807593,19.5212433 41.0012194,16.408785 Z M32,26 C28.6862915,26 26,28.6862915 26,32 C26,35.3137085 28.6862915,38 32,38 C35.3137085,38 38,35.3137085 38,32 C38,28.6862915 35.3137085,26 32,26 Z M32,29 C33.6568542,29 35,30.3431458 35,32 C35,33.6568542 33.6568542,35 32,35 C30.3431458,35 29,33.6568542 29,32 C29,30.3431458 30.3431458,29 32,29 Z" id="Combined-Shape" fill="#000000" fill-rule="nonzero"></path>
    </g>
</svg>