<svg xmlns="http://www.w3.org/2000/svg" viewBox="0 0 945 398">
  <path fill="currentColor" fill-rule="evenodd" d="M109.294 5.23c-.54.699-23.169 45.595-50.284 99.77C31.894 159.175 7.974 206.764 5.854 210.753S2 218.237 2 218.519s12.481.393 27.736.247l27.737-.266 24.583-49c13.521-26.95 25.71-51.186 27.086-53.858l2.503-4.858 7.552 16.358c4.153 8.997 9.471 20.633 11.818 25.858 2.348 5.225 6.145 13.55 8.438 18.5 2.294 4.95 7.968 17.647 12.609 28.216s8.723 19.231 9.071 19.25c.349.019.868-.753 1.155-1.716s8.001-18.4 17.142-38.75 19.646-43.857 23.345-52.239c3.699-8.381 6.95-15.233 7.225-15.227s12.707 24.188 27.626 53.738l27.126 53.728 27.624.266c15.193.146 27.624-.027 27.624-.385 0-.612-33.792-67.523-56.503-111.881-5.632-11-18.908-37.1-29.503-58S213.818 8.979 212.703 7.12l-2.026-3.379-1.762 3.433C207.496 9.94 188.882 50.72 179.782 71c-1.111 2.475-4.361 9.675-7.222 16s-6.508 14.537-8.104 18.25c-1.595 3.712-3.178 6.75-3.516 6.75-.612 0-3.406-5.776-14.749-30.5-3.281-7.15-7.816-16.964-10.078-21.809S132 50.715 132 50.512c0-.204-2.925-6.526-6.5-14.05S119 22.647 119 22.481s-1.962-4.401-4.361-9.411c-3.171-6.623-4.63-8.763-5.345-7.84m306.239.289c-24.322 3.964-44.802 14.756-62.252 32.801-31.975 33.067-40.287 82.346-20.777 123.18 17.616 36.87 53.867 61.107 94.496 63.181 25.238 1.287 47.896-4.665 68.246-17.93 46.389-30.238 62.87-90.792 38.151-140.171-5.941-11.868-11.554-19.511-21.04-28.649-9.916-9.553-16.605-14.506-27.452-20.33-21.274-11.422-46.484-15.813-69.372-12.082M544 4.598c0 .834 28.759 55.101 62.481 117.902 5.907 11 14.941 27.875 20.074 37.5 25.864 48.489 31.316 58.457 32.122 58.726.482.16 2.589-3.2 4.683-7.467 2.093-4.268 10.687-20.809 19.096-36.759s22.829-43.4 32.044-61 18.886-36.05 21.492-41c2.605-4.95 10.484-20.025 17.508-33.5s14.017-26.862 15.539-29.75L771.808 4H715.14l-7.66 15.25c-4.213 8.387-16.902 33.41-28.199 55.605l-20.54 40.354-3.433-6.354c-1.889-3.495-9.996-19.18-18.016-34.855-12.429-24.29-19.643-38.222-33.656-65l-2.355-4.5-28.641-.265c-15.752-.146-28.64.017-28.64.363m281.259 7.652c-2.302 4.538-10.078 19.725-17.28 33.75-7.201 14.025-19.883 38.775-28.181 55-30.272 59.192-34.75 67.939-47.161 92.115-6.95 13.538-12.637 24.9-12.637 25.25 0 .349 12.348.635 27.44.635h27.441l27.309-53.98c15.021-29.689 27.535-53.987 27.81-53.995.275-.009 12.875 24.273 28 53.959l27.5 53.975 27.75.021c15.263.011 27.75-.33 27.75-.757 0-.428-.602-1.666-1.338-2.75-.737-1.085-8.671-16.373-17.632-33.973-8.962-17.6-18.421-36.05-21.022-41-2.6-4.95-8.787-16.875-13.749-26.5s-15.755-30.55-23.983-46.5c-8.229-15.95-18.957-36.762-23.841-46.25C834.55 11.762 830.305 4 830 4s-2.438 3.713-4.741 8.25M417 52.608c-39.422 10.584-59.753 56.056-40.889 91.449 6.098 11.441 17.186 22.453 28.389 28.196 11.61 5.95 29.212 8.179 42.406 5.367 23.049-4.91 41.905-22.248 48.53-44.62 2.532-8.55 3.047-22.175 1.172-31-4.833-22.753-24.861-43.703-47.252-49.429-7.761-1.984-24.9-1.965-32.356.037M3.46 252.25c-.263.688-.361 32.75-.219 71.25l.259 70H41c36.521 0 37.673-.06 44.147-2.297 35.988-12.438 55.521-55.546 42.372-93.509-8.159-23.556-26.296-40.573-48.184-45.211-9.263-1.963-75.137-2.165-75.875-.233m171.018-.048c-.273.714-.379 32.798-.237 71.298l.259 70h23l.265-28.75.266-28.75 19.734.011 19.735.01 4.317 7.575c2.375 4.166 6.049 10.799 8.165 14.739 2.116 3.941 7.377 13.465 11.691 21.165l7.843 14 14.242.277c7.833.153 14.239-.072 14.235-.5-.005-.427-2.066-4.377-4.58-8.777-2.515-4.4-6.174-10.925-8.132-14.5-1.957-3.575-5.442-9.875-7.745-14s-5.857-10.527-7.898-14.228l-3.711-6.727 4.567-2.147c6.305-2.964 13.852-10.003 17.371-16.203 13.111-23.101 4.596-52.207-18.398-62.887-4.92-2.286-5.388-2.31-49.73-2.606-35.983-.239-44.86-.043-45.259 1m168.982.048c-.263.688-.361 32.75-.219 71.25l.259 70 54.229.259 54.229.258.562-2.258c.309-1.243.431-7.209.271-13.259l-.291-11-42.25-.261-42.25-.261v-30.954l37.25-.262 37.25-.262v-26l-37.25-.262-37.25-.262v-30.954l42.25-.261 42.25-.261.291-11c.16-6.05.039-12.012-.269-13.25l-.56-2.25H397.95c-42.289 0-54.116.271-54.49 1.25m203.292 4.5c-1.387 3.163-5.537 12.725-9.223 21.25-3.685 8.525-8.687 20.007-11.115 25.515S522 313.854 522 314.251c0 1.691 12.356 6.817 17.806 7.386l5.801.607 4.115-9.372c2.264-5.155 4.876-11.285 5.805-13.622.93-2.337 1.99-4.25 2.356-4.25.367 0 3.71 7.087 7.429 15.75l6.762 15.75-2.277 1.855c-3.707 3.019-11.018 6.388-17.513 8.071-16.482 4.271-34.057-.69-46.629-13.162-3.274-3.248-6.022-5.24-6.485-4.7-3.203 3.733-14.17 19.368-14.17 20.201 0 1.296 10.205 10.681 15.236 14.01 2.07 1.37 3.764 2.619 3.764 2.776 0 .261-3.41 8.034-12.574 28.66-1.884 4.241-3.426 8.179-3.426 8.75 0 .665 4.669 1.039 12.977 1.039 15.257 0 13.113 1.755 21.078-17.258l5.345-12.758 3.55.7c12.057 2.378 28.435-.555 42.5-7.609l9.626-4.828 1.34 2.627c.736 1.444 3.899 8.663 7.028 16.042 3.13 7.378 6.793 15.591 8.14 18.25l2.45 4.834h12.983c7.965 0 12.983-.385 12.983-.997 0-.549-3.107-8.086-6.904-16.75s-9.92-22.728-13.605-31.253c-3.686-8.525-8.874-20.45-11.53-26.5s-8.032-18.425-11.947-27.5c-3.916-9.075-9.434-21.788-12.263-28.25L566.608 251h-17.335zm108.708-4.5c-.263.688-.361 32.75-.219 71.25l.259 70 11.75.282c6.462.155 11.851.155 11.975 0s.462-21.396.75-47.202l.525-46.92 12.55 16.92c6.902 9.306 16.127 21.757 20.499 27.67s8.4 10.729 8.95 10.704c.551-.025 5.38-5.988 10.732-13.25s14.685-19.931 20.74-28.153l11.009-14.95.26 47.45.26 47.449h24v-142l-10-.253c-5.5-.14-10.494.085-11.097.5-.975.669-23.09 30.14-38.835 51.753-3.206 4.4-6.152 8.36-6.549 8.801-.396.44-4.05-3.736-8.12-9.28-4.069-5.543-10.324-14.009-13.899-18.811-3.575-4.803-10.303-13.902-14.952-20.221-4.648-6.319-8.923-11.82-9.5-12.224-1.893-1.327-20.56-.898-21.088.485m178.15.323c-.917 2.391-.704 138.731.22 140.186.629.991 12.249 1.204 54.734 1l53.936-.259.279-13.25.279-13.25H858v-30.976l37.25-.262 37.25-.262v-26l-37.25-.262-37.25-.262V278h85.058l-.279-13.25-.279-13.25-54.14-.259c-48.72-.232-54.201-.099-54.75 1.332M28 322.488v44.696l23.774-.342 23.774-.342 6.721-3.31c32.952-16.229 32.944-65.376-.012-81.358l-6.757-3.277-23.75-.381-23.75-.382zm170-29.029V309h30.114c28.713 0 30.287-.097 33.84-2.094 7.23-4.064 9.7-12.44 5.853-19.847-4.514-8.691-3.761-8.52-38.878-8.85L198 277.918z"/>
</svg>
