<svg xmlns="http://www.w3.org/2000/svg" viewBox="0 0 943 227">
  <path fill="currentColor" fill-rule="evenodd" d="M109.316 5.204c-.553.713-23.191 45.621-50.306 99.796C31.894 159.175 7.974 206.764 5.854 210.753S2 218.237 2 218.519s12.481.393 27.735.247l27.736-.266 26.955-53.832 26.955-53.832 2.463 4.832c2.634 5.168 22.605 48.97 37.311 81.832 4.922 11 9.264 20.311 9.647 20.692.384.38 2.822-4.12 5.417-10 2.596-5.881 10.371-23.292 17.278-38.692s15.583-34.857 19.281-43.239c3.697-8.381 6.947-15.234 7.222-15.229s12.713 24.188 27.639 53.739l27.14 53.729 27.61.266c15.186.146 27.611-.025 27.611-.38 0-.843-104.608-206.832-107.303-211.296l-2.058-3.411-3.084 6.411c-2.589 5.38-18.457 40.17-27.326 59.91-1.359 3.025-4.811 10.675-7.671 17s-6.506 14.537-8.102 18.25c-1.595 3.712-3.168 6.75-3.493 6.75-.719 0-1.935-2.485-12.48-25.5-4.535-9.9-9.602-20.925-11.258-24.5s-7.063-15.275-12.015-26C109.688 2.385 110.413 3.79 109.316 5.204m306.217.315c-23.326 3.802-42.524 13.543-59.783 30.331-17.24 16.771-27.972 37.279-32.202 61.535-6.922 39.695 9.52 80.211 42.693 105.199 10.883 8.198 14.187 10.073 25.543 14.497 23.231 9.049 49.969 10.278 73.709 3.39 65.704-19.066 98.355-93.062 67.904-153.891-5.941-11.868-11.554-19.511-21.04-28.649-9.916-9.553-16.605-14.506-27.452-20.33-21.274-11.422-46.484-15.813-69.372-12.082M544 4.608c0 .547 10.932 21.444 24.007 45.892 2.059 3.85 7.687 14.425 12.506 23.5s13.127 24.6 18.463 34.5 13.663 25.425 18.504 34.5c4.842 9.075 13.396 25.05 19.009 35.5s12.774 23.838 15.913 29.75c3.139 5.913 6.034 10.75 6.433 10.75.4 0 2.44-3.488 4.534-7.75 2.094-4.263 10.914-21.25 19.601-37.75s23.105-43.95 32.041-61 18.378-35.05 20.983-40c2.604-4.95 10.482-20.025 17.506-33.5s14.017-26.862 15.539-29.75L771.808 4H715.14l-7.66 15.25c-4.213 8.387-16.902 33.41-28.199 55.605l-20.54 40.354-3.44-6.354c-1.892-3.495-9.771-18.73-17.509-33.855S619.7 39.85 614.781 30.5c-4.918-9.35-10.005-19.025-11.305-21.5l-2.363-4.5-28.557-.265C556.85 4.089 544 4.257 544 4.608m281.259 7.642c-2.302 4.538-10.078 19.725-17.278 33.75-14.027 27.32-35.451 69.174-53.237 104-6.038 11.825-16.326 31.898-22.862 44.607-6.535 12.709-11.882 23.396-11.882 23.75s12.348.643 27.44.643h27.441l27.309-53.98c15.021-29.689 27.535-53.989 27.81-54 .275-.01 12.875 24.272 28 53.961l27.5 53.981 27.75.019c15.263.01 27.75-.331 27.75-.758 0-.428-.602-1.666-1.338-2.75-.735-1.085-8.443-15.923-17.128-32.973s-17.932-35.05-20.549-40c-2.616-4.95-16.334-31.5-30.483-59-37.667-73.208-40.949-79.49-41.529-79.495-.29-.003-2.411 3.708-4.714 8.245M417 52.608c-27.947 7.503-48 33.569-48 62.392 0 35.002 29.206 63.965 64.5 63.965 28.526 0 53.902-18.832 61.936-45.965 2.532-8.55 3.047-22.175 1.172-31-4.833-22.753-24.861-43.703-47.252-49.429-7.761-1.984-24.9-1.965-32.356.037"/>
</svg>
